<svg width="138" height="24" viewBox="0 0 138 24" fill="none" xmlns="http://www.w3.org/2000/svg">
<path d="M0.837109 23V2H8.33711C9.47711 2 10.5071 2.285 11.4271 2.855C12.3571 3.425 13.0921 4.19 13.6321 5.15C14.1721 6.11 14.4421 7.165 14.4421 8.315C14.4421 9.495 14.1621 10.565 13.6021 11.525C13.0521 12.475 12.3121 13.235 11.3821 13.805C10.4521 14.365 9.43711 14.645 8.33711 14.645H4.49711V23H0.837109ZM4.49711 10.985H7.94711C8.46711 10.985 8.94211 10.855 9.37211 10.595C9.80211 10.335 10.1421 9.985 10.3921 9.545C10.6521 9.105 10.7821 8.615 10.7821 8.075C10.7821 7.525 10.6521 7.03 10.3921 6.59C10.1421 6.15 9.80211 5.8 9.37211 5.54C8.94211 5.28 8.46711 5.15 7.94711 5.15H4.49711V10.985ZM62.8 23V2H70.3C71.44 2 72.47 2.285 73.39 2.855C74.32 3.425 75.055 4.19 75.595 5.15C76.135 6.11 76.405 7.165 76.405 8.315C76.405 9.495 76.125 10.565 75.565 11.525C75.015 12.475 74.275 13.235 73.345 13.805C72.415 14.365 71.4 14.645 70.3 14.645H66.46V23H62.8ZM66.46 10.985H69.91C70.43 10.985 70.905 10.855 71.335 10.595C71.765 10.335 72.105 9.985 72.355 9.545C72.615 9.105 72.745 8.615 72.745 8.075C72.745 7.525 72.615 7.03 72.355 6.59C72.105 6.15 71.765 5.8 71.335 5.54C70.905 5.28 70.43 5.15 69.91 5.15H66.46V10.985Z" fill="#B02788"/>
<path d="M17.4634 23L17.4484 8H21.1084L21.1234 9.335C21.6334 8.795 22.2434 8.37 22.9534 8.06C23.6634 7.74 24.4284 7.58 25.2484 7.58C25.7984 7.58 26.3484 7.66 26.8984 7.82L25.4584 11.51C25.0784 11.36 24.6984 11.285 24.3184 11.285C23.7284 11.285 23.1884 11.43 22.6984 11.72C22.2184 12 21.8334 12.385 21.5434 12.875C21.2634 13.355 21.1234 13.89 21.1234 14.48V23H17.4634ZM34.4781 23.39C33.0981 23.39 31.8381 23.035 30.6981 22.325C29.5681 21.615 28.6631 20.665 27.9831 19.475C27.3131 18.275 26.9781 16.95 26.9781 15.5C26.9781 14.4 27.1731 13.375 27.5631 12.425C27.9531 11.465 28.4881 10.625 29.1681 9.905C29.8581 9.175 30.6581 8.605 31.5681 8.195C32.4781 7.785 33.4481 7.58 34.4781 7.58C35.8581 7.58 37.1131 7.935 38.2431 8.645C39.3831 9.355 40.2881 10.31 40.9581 11.51C41.6381 12.71 41.9781 14.04 41.9781 15.5C41.9781 16.59 41.7831 17.61 41.3931 18.56C41.0031 19.51 40.4631 20.35 39.7731 21.08C39.0931 21.8 38.2981 22.365 37.3881 22.775C36.4881 23.185 35.5181 23.39 34.4781 23.39ZM34.4781 19.73C35.2081 19.73 35.8631 19.535 36.4431 19.145C37.0231 18.755 37.4781 18.24 37.8081 17.6C38.1481 16.96 38.3181 16.26 38.3181 15.5C38.3181 14.72 38.1431 14.01 37.7931 13.37C37.4531 12.72 36.9881 12.205 36.3981 11.825C35.8181 11.435 35.1781 11.24 34.4781 11.24C33.7581 11.24 33.1081 11.435 32.5281 11.825C31.9481 12.215 31.4881 12.735 31.1481 13.385C30.8081 14.035 30.6381 14.74 30.6381 15.5C30.6381 16.29 30.8131 17.005 31.1631 17.645C31.5131 18.285 31.9781 18.795 32.5581 19.175C33.1481 19.545 33.7881 19.73 34.4781 19.73ZM48.9102 4.85V8H53.0052V11.66H48.9102V23H45.2502V11.66H43.6152V8H45.2502V4.85C45.2502 3.99 45.4602 3.205 45.8802 2.495C46.3102 1.775 46.8852 1.205 47.6052 0.784999C48.3252 0.354999 49.1202 0.139999 49.9902 0.139999C50.6202 0.139999 51.2452 0.269999 51.8652 0.53C52.4852 0.789999 53.0352 1.19 53.5152 1.73L50.8752 4.31C50.7852 4.14 50.6552 4.015 50.4852 3.935C50.3252 3.845 50.1602 3.8 49.9902 3.8C49.7002 3.8 49.4452 3.905 49.2252 4.115C49.0152 4.315 48.9102 4.56 48.9102 4.85ZM86.0113 23.39C84.6313 23.39 83.3713 23.035 82.2313 22.325C81.1013 21.615 80.1963 20.665 79.5163 19.475C78.8463 18.275 78.5113 16.95 78.5113 15.5C78.5113 14.4 78.7063 13.375 79.0963 12.425C79.4863 11.465 80.0213 10.625 80.7013 9.905C81.3913 9.175 82.1913 8.605 83.1013 8.195C84.0113 7.785 84.9813 7.58 86.0113 7.58C87.3913 7.58 88.6463 7.935 89.7763 8.645C90.9163 9.355 91.8213 10.31 92.4913 11.51C93.1713 12.71 93.5113 14.04 93.5113 15.5C93.5113 16.59 93.3163 17.61 92.9263 18.56C92.5363 19.51 91.9963 20.35 91.3063 21.08C90.6263 21.8 89.8313 22.365 88.9213 22.775C88.0213 23.185 87.0513 23.39 86.0113 23.39ZM86.0113 19.73C86.7413 19.73 87.3963 19.535 87.9763 19.145C88.5563 18.755 89.0113 18.24 89.3413 17.6C89.6813 16.96 89.8513 16.26 89.8513 15.5C89.8513 14.72 89.6763 14.01 89.3263 13.37C88.9863 12.72 88.5213 12.205 87.9313 11.825C87.3513 11.435 86.7113 11.24 86.0113 11.24C85.2913 11.24 84.6413 11.435 84.0613 11.825C83.4813 12.215 83.0213 12.735 82.6813 13.385C82.3413 14.035 82.1713 14.74 82.1713 15.5C82.1713 16.29 82.3463 17.005 82.6963 17.645C83.0463 18.285 83.5113 18.795 84.0913 19.175C84.6813 19.545 85.3213 19.73 86.0113 19.73ZM109.587 13.52V23H105.927V14.48C105.927 13.89 105.782 13.355 105.492 12.875C105.202 12.385 104.812 12 104.322 11.72C103.842 11.43 103.307 11.285 102.717 11.285C102.127 11.285 101.587 11.43 101.097 11.72C100.617 12 100.232 12.385 99.9419 12.875C99.6619 13.355 99.5219 13.89 99.5219 14.48V23H95.8619L95.8469 8H99.5069L99.5219 9.335C100.032 8.795 100.642 8.37 101.352 8.06C102.062 7.74 102.827 7.58 103.647 7.58C104.737 7.58 105.732 7.85 106.632 8.39C107.532 8.92 108.247 9.635 108.777 10.535C109.317 11.425 109.587 12.42 109.587 13.52ZM120.615 11.66H117.705V23H114.045V11.66H111.825V8H114.045V3.29H117.705V8H120.615V11.66ZM129.576 23.39C128.196 23.39 126.936 23.035 125.796 22.325C124.666 21.615 123.761 20.665 123.081 19.475C122.411 18.275 122.076 16.95 122.076 15.5C122.076 14.4 122.271 13.375 122.661 12.425C123.051 11.465 123.586 10.625 124.266 9.905C124.956 9.175 125.756 8.605 126.666 8.195C127.576 7.785 128.546 7.58 129.576 7.58C130.956 7.58 132.211 7.935 133.341 8.645C134.481 9.355 135.386 10.31 136.056 11.51C136.736 12.71 137.076 14.04 137.076 15.5C137.076 16.59 136.881 17.61 136.491 18.56C136.101 19.51 135.561 20.35 134.871 21.08C134.191 21.8 133.396 22.365 132.486 22.775C131.586 23.185 130.616 23.39 129.576 23.39ZM129.576 19.73C130.306 19.73 130.961 19.535 131.541 19.145C132.121 18.755 132.576 18.24 132.906 17.6C133.246 16.96 133.416 16.26 133.416 15.5C133.416 14.72 133.241 14.01 132.891 13.37C132.551 12.72 132.086 12.205 131.496 11.825C130.916 11.435 130.276 11.24 129.576 11.24C128.856 11.24 128.206 11.435 127.626 11.825C127.046 12.215 126.586 12.735 126.246 13.385C125.906 14.035 125.736 14.74 125.736 15.5C125.736 16.29 125.911 17.005 126.261 17.645C126.611 18.285 127.076 18.795 127.656 19.175C128.246 19.545 128.886 19.73 129.576 19.73Z" fill="#3C154B"/>
</svg>
